<svg role="img" width="100%" viewBox="0 0 52 52" fill="none" xmlns="http://www.w3.org/2000/svg">
<rect width="52" height="52" fill="#033A48"></rect>
<path d="M19.78 22.91V37.88C19.78 40.12 19.2 41.81 18.04 42.95C16.9 44.11 15.21 44.69 12.97 44.69C10.67 44.69 8.69 44.17 7.03 43.13L7.45 41.15C8.41 41.69 9.31 42.08 10.15 42.32C11.01 42.56 11.95 42.68 12.97 42.68C14.43 42.68 15.53 42.29 16.27 41.51C17.01 40.75 17.38 39.61 17.38 38.09V34.52C16.92 35.48 16.24 36.23 15.34 36.77C14.46 37.29 13.41 37.55 12.19 37.55C10.87 37.55 9.69 37.24 8.65 36.62C7.63 36 6.84 35.12 6.28 33.98C5.72 32.84 5.44 31.53 5.44 30.05C5.44 28.57 5.72 27.26 6.28 26.12C6.84 24.98 7.63 24.1 8.65 23.48C9.69 22.86 10.87 22.55 12.19 22.55C13.39 22.55 14.43 22.81 15.31 23.33C16.21 23.85 16.89 24.58 17.35 25.52V22.91H19.78ZM12.67 35.51C14.13 35.51 15.27 35.03 16.09 34.07C16.93 33.09 17.35 31.75 17.35 30.05C17.35 28.35 16.93 27.02 16.09 26.06C15.27 25.08 14.13 24.59 12.67 24.59C11.19 24.59 10.02 25.08 9.16 26.06C8.32 27.02 7.9 28.35 7.9 30.05C7.9 31.75 8.32 33.09 9.16 34.07C10.02 35.03 11.19 35.51 12.67 35.51Z" fill="white"></path>
<path d="M30.1755 38.21C28.7155 38.21 27.4355 37.89 26.3355 37.25C25.2555 36.61 24.4155 35.71 23.8155 34.55C23.2355 33.37 22.9455 32 22.9455 30.44C22.9455 28.88 23.2455 27.51 23.8455 26.33C24.4455 25.13 25.2955 24.2 26.3955 23.54C27.5155 22.88 28.8155 22.55 30.2955 22.55C31.3155 22.55 32.2955 22.73 33.2355 23.09C34.1955 23.43 34.9855 23.91 35.6055 24.53L34.7955 26.33C34.0355 25.73 33.2955 25.29 32.5755 25.01C31.8755 24.73 31.1555 24.59 30.4155 24.59C28.8755 24.59 27.6655 25.11 26.7855 26.15C25.9055 27.17 25.4655 28.6 25.4655 30.44C25.4655 32.26 25.8955 33.68 26.7555 34.7C27.6355 35.7 28.8555 36.2 30.4155 36.2C31.1555 36.2 31.8755 36.06 32.5755 35.78C33.2955 35.5 34.0355 35.06 34.7955 34.46L35.6055 36.26C34.9655 36.86 34.1555 37.34 33.1755 37.7C32.2155 38.04 31.2155 38.21 30.1755 38.21Z" fill="white"></path>
</svg>